<mxfile host="Electron" agent="Mozilla/5.0 (Macintosh; Intel Mac OS X 10_15_7) AppleWebKit/537.36 (KHTML, like Gecko) draw.io/26.1.1 Chrome/132.0.6834.210 Electron/34.3.3 Safari/537.36" version="26.1.1">
  <diagram name="Page-1" id="7_wgq7BfEyc55jz5z7S5">
    <mxGraphModel dx="1114" dy="854" grid="1" gridSize="10" guides="1" tooltips="1" connect="1" arrows="1" fold="1" page="1" pageScale="1" pageWidth="827" pageHeight="1169" math="0" shadow="0">
      <root>
        <mxCell id="0" />
        <mxCell id="1" parent="0" />
        <mxCell id="uV9uIJ9_PrcV2sSuFoq1-25" value="" style="rounded=0;whiteSpace=wrap;html=1;fillColor=none;strokeColor=#b85450;strokeWidth=2;dashed=1;" vertex="1" parent="1">
          <mxGeometry x="300" y="130" width="200" height="150" as="geometry" />
        </mxCell>
        <mxCell id="uV9uIJ9_PrcV2sSuFoq1-15" style="edgeStyle=orthogonalEdgeStyle;rounded=0;orthogonalLoop=1;jettySize=auto;html=1;entryX=0;entryY=0.5;entryDx=0;entryDy=0;endArrow=block;endFill=1;" edge="1" parent="1">
          <mxGeometry relative="1" as="geometry">
            <mxPoint x="180" y="170" as="sourcePoint" />
            <mxPoint x="210" y="170" as="targetPoint" />
          </mxGeometry>
        </mxCell>
        <mxCell id="uV9uIJ9_PrcV2sSuFoq1-16" style="edgeStyle=orthogonalEdgeStyle;rounded=0;orthogonalLoop=1;jettySize=auto;html=1;entryX=0;entryY=0.5;entryDx=0;entryDy=0;endArrow=block;endFill=1;" edge="1" parent="1">
          <mxGeometry relative="1" as="geometry">
            <mxPoint x="180" y="246" as="sourcePoint" />
            <mxPoint x="210" y="246" as="targetPoint" />
          </mxGeometry>
        </mxCell>
        <mxCell id="uV9uIJ9_PrcV2sSuFoq1-1" value="RNN&lt;div&gt;Model&lt;/div&gt;" style="rounded=1;whiteSpace=wrap;html=1;fillColor=#fff2cc;strokeColor=#d6b656;" vertex="1" parent="1">
          <mxGeometry x="100" y="120" width="80" height="170" as="geometry" />
        </mxCell>
        <mxCell id="uV9uIJ9_PrcV2sSuFoq1-17" style="edgeStyle=orthogonalEdgeStyle;rounded=0;orthogonalLoop=1;jettySize=auto;html=1;entryX=0;entryY=0.5;entryDx=0;entryDy=0;endArrow=block;endFill=1;fontStyle=1;fontColor=#FF3333;" edge="1" parent="1" source="uV9uIJ9_PrcV2sSuFoq1-2" target="uV9uIJ9_PrcV2sSuFoq1-4">
          <mxGeometry relative="1" as="geometry">
            <Array as="points">
              <mxPoint x="300" y="170" />
              <mxPoint x="300" y="170" />
            </Array>
          </mxGeometry>
        </mxCell>
        <mxCell id="uV9uIJ9_PrcV2sSuFoq1-19" style="edgeStyle=orthogonalEdgeStyle;rounded=0;orthogonalLoop=1;jettySize=auto;html=1;endArrow=block;endFill=1;fontStyle=1;fontColor=#FF3333;" edge="1" parent="1" source="uV9uIJ9_PrcV2sSuFoq1-2" target="uV9uIJ9_PrcV2sSuFoq1-5">
          <mxGeometry relative="1" as="geometry">
            <Array as="points">
              <mxPoint x="300" y="248" />
              <mxPoint x="300" y="248" />
            </Array>
          </mxGeometry>
        </mxCell>
        <mxCell id="uV9uIJ9_PrcV2sSuFoq1-2" value="Scaler" style="rounded=1;whiteSpace=wrap;html=1;fillColor=#fff2cc;strokeColor=#d6b656;" vertex="1" parent="1">
          <mxGeometry x="210" y="120" width="80" height="170" as="geometry" />
        </mxCell>
        <mxCell id="uV9uIJ9_PrcV2sSuFoq1-23" style="edgeStyle=orthogonalEdgeStyle;rounded=0;orthogonalLoop=1;jettySize=auto;html=1;entryX=1;entryY=0.5;entryDx=0;entryDy=0;endArrow=block;endFill=1;" edge="1" parent="1" source="uV9uIJ9_PrcV2sSuFoq1-3" target="uV9uIJ9_PrcV2sSuFoq1-6">
          <mxGeometry relative="1" as="geometry">
            <Array as="points">
              <mxPoint x="500" y="170" />
              <mxPoint x="500" y="170" />
            </Array>
          </mxGeometry>
        </mxCell>
        <mxCell id="uV9uIJ9_PrcV2sSuFoq1-24" style="edgeStyle=orthogonalEdgeStyle;rounded=0;orthogonalLoop=1;jettySize=auto;html=1;entryX=1;entryY=0.5;entryDx=0;entryDy=0;endArrow=block;endFill=1;" edge="1" parent="1" source="uV9uIJ9_PrcV2sSuFoq1-3" target="uV9uIJ9_PrcV2sSuFoq1-7">
          <mxGeometry relative="1" as="geometry">
            <Array as="points">
              <mxPoint x="500" y="250" />
              <mxPoint x="500" y="250" />
            </Array>
          </mxGeometry>
        </mxCell>
        <mxCell id="uV9uIJ9_PrcV2sSuFoq1-3" value="Scaler" style="rounded=1;whiteSpace=wrap;html=1;fillColor=#fff2cc;strokeColor=#d6b656;" vertex="1" parent="1">
          <mxGeometry x="510" y="120" width="80" height="170" as="geometry" />
        </mxCell>
        <mxCell id="uV9uIJ9_PrcV2sSuFoq1-4" value="TrainPredict" style="text;html=1;align=center;verticalAlign=middle;whiteSpace=wrap;rounded=0;fontStyle=1;fontColor=#FF3333;" vertex="1" parent="1">
          <mxGeometry x="320" y="160" width="80" height="20" as="geometry" />
        </mxCell>
        <mxCell id="uV9uIJ9_PrcV2sSuFoq1-5" value="TestPredict" style="text;html=1;align=center;verticalAlign=middle;whiteSpace=wrap;rounded=0;fontStyle=1;fontColor=#FF3333;" vertex="1" parent="1">
          <mxGeometry x="320" y="238" width="80" height="20" as="geometry" />
        </mxCell>
        <mxCell id="uV9uIJ9_PrcV2sSuFoq1-6" value="Y_train" style="text;html=1;align=center;verticalAlign=middle;whiteSpace=wrap;rounded=0;fontStyle=1;fontColor=#FF3333;" vertex="1" parent="1">
          <mxGeometry x="430" y="160" width="50" height="20" as="geometry" />
        </mxCell>
        <mxCell id="uV9uIJ9_PrcV2sSuFoq1-7" value="Y_test" style="text;html=1;align=center;verticalAlign=middle;whiteSpace=wrap;rounded=0;fontStyle=1;fontColor=#FF3333;" vertex="1" parent="1">
          <mxGeometry x="430" y="240" width="50" height="20" as="geometry" />
        </mxCell>
        <mxCell id="uV9uIJ9_PrcV2sSuFoq1-13" style="edgeStyle=orthogonalEdgeStyle;rounded=0;orthogonalLoop=1;jettySize=auto;html=1;entryX=0;entryY=0.25;entryDx=0;entryDy=0;endArrow=block;endFill=1;" edge="1" parent="1" source="uV9uIJ9_PrcV2sSuFoq1-8">
          <mxGeometry relative="1" as="geometry">
            <mxPoint x="100" y="170.5" as="targetPoint" />
          </mxGeometry>
        </mxCell>
        <mxCell id="uV9uIJ9_PrcV2sSuFoq1-8" value="X_train" style="text;html=1;align=center;verticalAlign=middle;whiteSpace=wrap;rounded=0;" vertex="1" parent="1">
          <mxGeometry x="10" y="156" width="60" height="30" as="geometry" />
        </mxCell>
        <mxCell id="uV9uIJ9_PrcV2sSuFoq1-14" style="edgeStyle=orthogonalEdgeStyle;rounded=0;orthogonalLoop=1;jettySize=auto;html=1;entryX=0;entryY=0.75;entryDx=0;entryDy=0;endArrow=block;endFill=1;" edge="1" parent="1" source="uV9uIJ9_PrcV2sSuFoq1-9" target="uV9uIJ9_PrcV2sSuFoq1-1">
          <mxGeometry relative="1" as="geometry" />
        </mxCell>
        <mxCell id="uV9uIJ9_PrcV2sSuFoq1-9" value="X_test" style="text;html=1;align=center;verticalAlign=middle;whiteSpace=wrap;rounded=0;" vertex="1" parent="1">
          <mxGeometry x="10" y="232" width="60" height="30" as="geometry" />
        </mxCell>
        <mxCell id="uV9uIJ9_PrcV2sSuFoq1-20" style="edgeStyle=orthogonalEdgeStyle;rounded=0;orthogonalLoop=1;jettySize=auto;html=1;entryX=1;entryY=0.25;entryDx=0;entryDy=0;endArrow=block;endFill=1;" edge="1" parent="1" source="uV9uIJ9_PrcV2sSuFoq1-10">
          <mxGeometry relative="1" as="geometry">
            <mxPoint x="590" y="171.5" as="targetPoint" />
          </mxGeometry>
        </mxCell>
        <mxCell id="uV9uIJ9_PrcV2sSuFoq1-10" value="y_train" style="text;html=1;align=center;verticalAlign=middle;whiteSpace=wrap;rounded=0;" vertex="1" parent="1">
          <mxGeometry x="624" y="157" width="60" height="30" as="geometry" />
        </mxCell>
        <mxCell id="uV9uIJ9_PrcV2sSuFoq1-21" style="edgeStyle=orthogonalEdgeStyle;rounded=0;orthogonalLoop=1;jettySize=auto;html=1;entryX=1;entryY=0.75;entryDx=0;entryDy=0;endArrow=block;endFill=1;" edge="1" parent="1" source="uV9uIJ9_PrcV2sSuFoq1-11">
          <mxGeometry relative="1" as="geometry">
            <mxPoint x="590" y="251.5" as="targetPoint" />
          </mxGeometry>
        </mxCell>
        <mxCell id="uV9uIJ9_PrcV2sSuFoq1-11" value="y_test" style="text;html=1;align=center;verticalAlign=middle;whiteSpace=wrap;rounded=0;" vertex="1" parent="1">
          <mxGeometry x="620" y="237" width="60" height="30" as="geometry" />
        </mxCell>
        <mxCell id="uV9uIJ9_PrcV2sSuFoq1-26" value="예측값" style="text;html=1;align=center;verticalAlign=middle;whiteSpace=wrap;rounded=0;fontStyle=1" vertex="1" parent="1">
          <mxGeometry x="320" y="130" width="60" height="30" as="geometry" />
        </mxCell>
        <mxCell id="uV9uIJ9_PrcV2sSuFoq1-27" value="실젯값" style="text;html=1;align=center;verticalAlign=middle;whiteSpace=wrap;rounded=0;fontStyle=1" vertex="1" parent="1">
          <mxGeometry x="425" y="130" width="60" height="30" as="geometry" />
        </mxCell>
      </root>
    </mxGraphModel>
  </diagram>
</mxfile>
